<svg width="32" height="31" viewBox="0 0 32 31" fill="none" xmlns="http://www.w3.org/2000/svg">
<mask id="mask0_52:565" style="mask-type:alpha" maskUnits="userSpaceOnUse" x="0" y="0" width="32" height="31">
<path d="M31.5 15.5C31.5 24.0604 24.5604 31 16 31C7.43959 31 0.5 24.0604 0.5 15.5C0.5 6.93959 7.43959 0 16 0C24.5604 0 31.5 6.93959 31.5 15.5Z" fill="#312E81"/>
</mask>
<g mask="url(#mask0_52:565)">
<path fill-rule="evenodd" clip-rule="evenodd" d="M16 28.8372C23.3659 28.8372 29.3372 22.8659 29.3372 15.5C29.3372 8.13406 23.3659 2.16279 16 2.16279C8.63406 2.16279 2.66279 8.13406 2.66279 15.5C2.66279 22.8659 8.63406 28.8372 16 28.8372ZM16 31C24.5604 31 31.5 24.0604 31.5 15.5C31.5 6.93959 24.5604 0 16 0C7.43959 0 0.5 6.93959 0.5 15.5C0.5 24.0604 7.43959 31 16 31Z" fill="#654FF0"/>
<path fill-rule="evenodd" clip-rule="evenodd" d="M13.0222 5.27005L3.93994 0.224359L4.99029 -1.66626L15.489 4.16636L15.2312 5.00405C15.1126 5.38957 15.1894 6.27058 15.7576 7.38341C16.2987 8.44314 17.1934 9.5186 18.3755 10.2574C20.7001 11.7103 22.9541 10.6819 24.031 9.92802L24.5803 9.5435L37.0643 16.353L36.0287 18.2517L24.6921 12.0681C23.1314 12.9705 20.2454 13.9766 17.2292 12.0914C15.6772 11.1214 14.5293 9.73372 13.8314 8.36695C13.3224 7.37019 12.9933 6.26109 13.0222 5.27005Z" fill="#654FF0"/>
<path fill-rule="evenodd" clip-rule="evenodd" d="M9.77798 10.3166L0.69574 5.27087L1.74608 3.38025L12.2448 9.21287L11.987 10.0506C11.8684 10.4361 11.9452 11.3171 12.5134 12.4299C13.0545 13.4896 13.9492 14.5651 15.1313 15.3039C17.4559 16.7568 19.7099 15.7284 20.7868 14.9745L21.3361 14.59L33.8201 21.3995L32.7845 23.2982L21.4479 17.1146C19.8872 18.017 17.0012 19.0231 13.985 17.1379C12.433 16.1679 11.2851 14.7802 10.5872 13.4135C10.0782 12.4167 9.74905 11.3076 9.77798 10.3166Z" fill="#654FF0"/>
<path fill-rule="evenodd" clip-rule="evenodd" d="M6.17333 16.084L-2.90891 11.0383L-1.85856 9.14771L8.64015 14.9803L8.3824 15.818C8.26378 16.2035 8.34055 17.0845 8.90877 18.1974C9.44987 19.2571 10.3446 20.3326 11.5266 21.0713C13.8513 22.5243 16.1052 21.4958 17.1822 20.742L17.7315 20.3575L30.2155 27.1669L29.1798 29.0656L17.8432 22.882C16.2826 23.7845 13.3965 24.7905 10.3803 22.9054C8.82836 21.9354 7.68042 20.5477 6.98255 19.1809C6.4736 18.1842 6.1444 17.0751 6.17333 16.084Z" fill="#654FF0"/>
</g>
</svg>
