<svg width="31" height="31" viewBox="0 0 31 31" fill="none" xmlns="http://www.w3.org/2000/svg">
<path fill-rule="evenodd" clip-rule="evenodd" d="M23.4475 26.2117C21.2279 27.8612 18.4779 28.8372 15.5 28.8372C8.13406 28.8372 2.16279 22.8659 2.16279 15.5C2.16279 15.0512 2.18496 14.6075 2.22826 14.1701L5.67327 16.084C5.64434 17.075 5.97354 18.1841 6.48248 19.1809C7.18036 20.5477 8.32829 21.9354 9.88027 22.9054C12.8965 24.7905 15.7825 23.7845 17.3432 22.882L23.4475 26.2117ZM25.1687 24.6869L17.2314 20.3574L16.6821 20.742C15.6052 21.4958 13.3512 22.5242 11.0266 21.0713C9.8445 20.3325 8.9498 19.2571 8.4087 18.1974C7.84049 17.0845 7.76371 16.2035 7.88234 15.818L8.14009 14.9803L2.64643 11.9283C3.06823 10.4071 3.75282 8.99515 4.64826 7.74446L9.278 10.3165C9.24908 11.3076 9.57827 12.4167 10.0872 13.4134C10.7851 14.7802 11.933 16.1679 13.485 17.1379C16.5012 19.023 19.3873 18.017 20.9479 17.1145L27.7353 20.8168C27.1087 22.2567 26.2354 23.5646 25.1687 24.6869ZM28.4414 18.7383L20.8362 14.59L20.2868 14.9745C19.2099 15.7284 16.956 16.7568 14.6313 15.3039C13.4492 14.5651 12.5545 13.4896 12.0134 12.4299C11.4452 11.3171 11.3685 10.4361 11.4871 10.0505L11.7448 9.21285L6.07525 6.06309C7.07177 5.06785 8.22496 4.22945 9.49464 3.58808L12.5221 5.27003C12.4932 6.26107 12.8224 7.37017 13.3314 8.36693C14.0292 9.7337 15.1772 11.1214 16.7292 12.0914C19.7454 13.9765 22.6314 12.9705 24.192 12.068L28.8063 14.5849C28.8268 14.8873 28.8372 15.1924 28.8372 15.5C28.8372 16.6168 28.6999 17.7015 28.4414 18.7383ZM28.3357 11.8646L24.0803 9.54348L23.531 9.928C22.4541 10.6819 20.2001 11.7103 17.8754 10.2574C16.6934 9.51858 15.7987 8.44312 15.2576 7.3834C14.6894 6.27057 14.6126 5.38955 14.7312 5.00403L14.989 4.16634L12.1474 2.58769C13.2186 2.31035 14.3421 2.16279 15.5 2.16279C21.6057 2.16279 26.7531 6.26558 28.3357 11.8646ZM9.58961 1.1667C11.411 0.414811 13.4071 0 15.5 0C24.0604 0 31 6.93959 31 15.5C31 24.0604 24.0604 31 15.5 31C6.93959 31 0 24.0604 0 15.5C0 14.6629 0.0663666 13.8412 0.194126 13.04L0.194092 13.04C0.313467 12.2914 0.486441 11.5607 0.708957 10.8519L0.70899 10.8519C1.17952 9.35311 1.87159 7.95238 2.7468 6.6881L2.74677 6.68808C3.16413 6.08518 3.62315 5.51332 4.11965 4.97664L4.11968 4.97666C5.05027 3.97078 6.11256 3.08851 7.27915 2.35726L7.27912 2.35724C8.01053 1.89878 8.78293 1.49968 9.58958 1.16669L9.58961 1.1667Z" fill="#654FF0"/>
</svg>
